<svg width="227" height="55" viewBox="0 0 227 55" fill="none" xmlns="http://www.w3.org/2000/svg">
<g clip-path="url(#clip0_535_11856)">
<path d="M99.4196 15.9446C97.9723 13.7224 95.9584 12.1566 93.3915 11.2541C91.6097 10.6182 88.7355 10.3037 84.776 10.3037H79.2872V36.8123H87.7047C91.0089 36.8123 93.5758 36.3337 95.4054 35.3696C97.235 34.4124 98.7164 32.9218 99.8633 30.9048C101.01 28.8809 101.584 26.5494 101.584 23.8896C101.584 20.8128 100.86 18.1667 99.4196 15.9446ZM97.194 30.1185C96.0539 31.8073 94.4838 32.9765 92.4972 33.6261C91.084 34.0842 88.5444 34.3098 84.8852 34.3098H81.8268V12.8951H83.6905C87.4931 12.8951 90.2238 13.1481 91.8827 13.654C94.0946 14.3241 95.815 15.5685 97.0507 17.3804C98.2863 19.1923 98.9007 21.3803 98.9007 23.9375C98.9007 26.4947 98.3341 28.4365 97.194 30.1185Z" fill="white"/>
<path d="M120.644 33.0928C119.982 33.6672 119.183 34.1253 118.234 34.474C117.292 34.8227 116.323 34.9936 115.326 34.9936C113.264 34.9936 111.524 34.2689 110.117 32.8125C108.711 31.3493 107.987 29.4827 107.94 27.2059H125.56C125.532 24.5256 124.816 22.2898 123.396 20.5052C121.402 17.9685 118.74 16.6968 115.401 16.6968C112.063 16.6968 109.571 17.9343 107.632 20.4095C106.11 22.3581 105.345 24.5803 105.345 27.0623C105.345 29.7083 106.246 32.0809 108.049 34.18C109.851 36.2722 112.35 37.3252 115.545 37.3252C116.985 37.3252 118.275 37.1064 119.415 36.662C120.556 36.2244 121.586 35.5817 122.494 34.7407C123.409 33.9065 124.215 32.7988 124.911 31.4245L122.788 30.31C122.023 31.5886 121.3 32.5185 120.644 33.0928ZM110.479 20.9701C111.865 19.7326 113.51 19.1172 115.435 19.1172C116.603 19.1172 117.709 19.3634 118.767 19.8557C119.825 20.3479 120.672 20.9975 121.32 21.7975C121.962 22.6043 122.447 23.6846 122.788 25.0247H108.192C108.704 23.2265 109.469 21.8727 110.479 20.9701Z" fill="white"/>
<path d="M146.525 20.8266C145.986 19.5616 145.153 18.5634 144.019 17.8181C142.886 17.0728 141.582 16.6968 140.121 16.6968C138.66 16.6968 137.35 17.0318 136.121 17.7019C134.899 18.3651 133.786 19.3702 132.776 20.7172V17.2027H130.257V36.8124H132.776V29.6263C132.776 27.0418 132.899 25.264 133.137 24.2863C133.52 22.8026 134.319 21.5513 135.52 20.5394C136.728 19.5275 138.094 19.0283 139.616 19.0283C140.947 19.0283 142.026 19.3497 142.859 20.0061C143.685 20.6625 144.245 21.6402 144.538 22.9393C144.723 23.6914 144.818 25.2025 144.818 27.4588V36.8124H147.337V26.7204C147.337 24.0538 147.071 22.0915 146.525 20.8266Z" fill="white"/>
<path d="M157.455 17.2027V9.9209H154.936V17.2027H151.495V19.3839H154.936V36.8124H157.455V19.3839H161.448V17.2027H157.455Z" fill="white"/>
<path d="M164.848 17.2029V36.8125H167.367V17.2029H164.848ZM167.572 9.74329C167.163 9.33305 166.678 9.12793 166.104 9.12793C165.531 9.12793 165.06 9.33305 164.65 9.74329C164.247 10.1467 164.043 10.639 164.043 11.2202C164.043 11.8014 164.247 12.2731 164.65 12.6834C165.06 13.0868 165.538 13.2919 166.104 13.2919C166.671 13.2919 167.163 13.0868 167.572 12.6834C167.982 12.2731 168.18 11.7808 168.18 11.2202C168.18 10.6595 167.982 10.1467 167.572 9.74329Z" fill="white"/>
<path d="M181.478 28.4708C180.803 27.5682 179.533 26.6315 177.655 25.6606C176.119 24.8675 175.109 24.1769 174.624 23.582C174.146 23.0077 173.907 22.3992 173.907 21.7633C173.907 21.0385 174.194 20.4095 174.781 19.8693C175.362 19.3292 176.065 19.0625 176.884 19.0625C178.167 19.0625 179.485 19.7189 180.83 21.0248L182.455 19.3497C180.625 17.5856 178.809 16.6968 177.007 16.6968C175.457 16.6968 174.174 17.1959 173.157 18.1805C172.146 19.1651 171.641 20.4026 171.641 21.8864C171.641 23.0282 171.955 24.047 172.597 24.9358C173.232 25.8247 174.433 26.7272 176.201 27.6434C177.847 28.4776 178.905 29.1819 179.376 29.7289C179.84 30.2964 180.079 30.9391 180.079 31.6638C180.079 32.539 179.724 33.3048 179.014 33.9475C178.304 34.5971 177.444 34.9253 176.433 34.9253C174.986 34.9253 173.621 34.1937 172.337 32.7441L170.753 34.5424C171.429 35.4107 172.276 36.0876 173.307 36.5799C174.331 37.0791 175.409 37.3252 176.543 37.3252C178.236 37.3252 179.649 36.7645 180.775 35.6432C181.909 34.5287 182.468 33.1612 182.468 31.5544C182.468 30.4126 182.141 29.3801 181.478 28.4708Z" fill="white"/>
<path d="M191.637 17.2027V9.9209H189.118V17.2027H185.677V19.3839H189.118V36.8124H191.637V19.3839H195.631V17.2027H191.637Z" fill="white"/>
<path d="M206.123 16.6968C205.202 16.6968 204.307 16.9771 203.461 17.5378C202.608 18.0984 201.795 18.9394 201.031 20.0676V17.2027H198.457V36.8124H201.031V30.187C201.031 26.7819 201.188 24.5256 201.495 23.4043C201.904 21.9547 202.498 20.8744 203.277 20.1838C204.062 19.4933 204.867 19.1514 205.707 19.1514C206.069 19.1514 206.513 19.2608 207.038 19.4933L208.356 17.3668C207.564 16.9224 206.82 16.6968 206.123 16.6968Z" fill="white"/>
<path d="M224.317 17.2031L217.784 32.3069L211.052 17.2031H208.39L216.425 35.3291L212.657 43.992H215.319L227 17.2031H224.317Z" fill="white"/>
<path d="M121.074 41.7559V46.754H116.664V41.7559H114.111V54.9999H116.664V49.1949H121.074V54.9999H123.621V41.7559H121.074Z" fill="white"/>
<path d="M137.65 41.7559H135.097L129.997 54.9999H132.612L133.69 52.2718H139.084L140.115 54.9999H142.736L137.65 41.7559ZM134.612 49.8171L136.387 45.2703L138.148 49.8171H134.612Z" fill="white"/>
<path d="M151.611 52.6V41.7559H149.099V54.9999H155.284V52.6H151.611Z" fill="white"/>
<path d="M164.131 52.6V41.7559H161.619V54.9999H167.797V52.6H164.131Z" fill="white"/>
<path d="M180.721 41.7559H178.167L173.068 54.9999H175.682L176.761 52.2718H182.154L183.192 54.9999H185.807L180.721 41.7559ZM177.683 49.8171L179.458 45.2703L181.226 49.8171H177.683Z" fill="white"/>
<path d="M204.519 41.7559H202.068L198.976 51L195.904 41.7559H193.453L191.166 54.9999H193.617L195.071 46.6378L197.856 54.9999H200.075L202.881 46.6378L204.301 54.9999H206.731L204.519 41.7559Z" fill="white"/>
<path d="M74.2353 3.05615C72.6924 3.05615 70.9857 4.32107 70.4396 5.85948C69.832 7.45943 70.658 8.66965 72.2009 8.66965C73.7438 8.66965 75.4437 7.45943 76.0512 5.85948C76.5974 4.32107 75.826 3.05615 74.2353 3.05615ZM69.3541 33.0586L69.2653 33.1544C69.2244 33.2022 69.1834 33.2432 69.1356 33.2911L68.6236 33.8518C67.7429 34.7885 66.6438 35.3355 66.0908 35.3355C65.6539 35.3355 65.2102 34.8979 65.2648 34.515C65.3877 34.1048 65.7563 32.8945 66.0977 31.8689C66.2137 31.5202 66.323 31.1989 66.4254 30.9322L70.658 19.3086C72.2009 15.1173 74.3582 10.4474 71.1222 10.167C68.7738 9.96876 64.8893 13.6678 64.1179 14.3857C63.1007 15.3361 61.9879 16.5874 60.6976 18.2078L61.4144 18.8095L63.2918 16.772V16.7583C63.326 16.7241 63.3533 16.6899 63.3806 16.6557L63.599 16.4301C63.599 16.4301 63.6059 16.4233 63.6127 16.4164L63.995 15.9993C64.8757 15.0626 65.9202 14.5156 66.4732 14.5156C66.9101 14.5156 67.4084 14.9532 67.3538 15.3361C67.2309 15.7395 66.8828 16.8882 66.5483 17.8865C66.5483 17.9001 66.5483 17.907 66.5483 17.9206C66.4254 18.2899 66.3025 18.6386 66.2001 18.9189L61.9674 30.5425C60.4246 34.7338 60.0422 37.9269 63.285 37.9269C65.9816 37.9269 68.2345 36.2722 71.921 31.6433L71.211 31.0416L69.3541 33.0586Z" fill="white"/>
<path d="M63.2918 16.772C64.2476 15.5276 67.3197 14.1875 66.5483 17.9207C67.1695 20.6762 67.1149 20.0813 67.7703 18.7822C68.4188 17.4831 68.7465 13.743 68.3096 13.4148C67.8795 13.0867 66.6984 12.4918 66.3161 13.1961C65.927 13.9003 65.2238 13.6815 64.7391 14.3858C64.2544 15.09 64.309 14.8165 63.8175 15.4729L63.2918 16.772Z" fill="white"/>
<path d="M69.3609 33.0381C68.4051 34.2825 65.3331 35.6226 66.1045 31.8894C65.4833 29.1339 65.5379 29.7288 64.8825 31.0279C64.2339 32.327 63.9062 36.067 64.3432 36.3952C64.7733 36.7234 65.9543 37.3183 66.3366 36.614C66.7257 35.9098 67.4289 36.1286 67.9136 35.4243C68.3983 34.7201 68.3437 34.9936 68.8352 34.3372L69.3609 33.0381Z" fill="white"/>
<path d="M41.48 3.00162C43.0502 3.17255 43.6988 3.32981 44.0401 4.07509C44.2244 4.49217 44.32 5.09386 44.4087 5.98272C44.477 5.32633 44.5453 4.83404 44.6477 4.45115C44.9412 3.364 45.5488 3.18623 47.3989 2.98794C44.9003 2.72128 44.675 2.50249 44.4087 -0.00683594C44.1425 2.49565 43.924 2.72128 41.4459 2.98794H41.4186L41.4664 2.99478H41.48V3.00162Z" fill="white"/>
<path d="M11.1483 5.22364C11.2097 5.22364 11.278 5.20996 11.3394 5.20996C11.3121 5.20996 11.2848 5.20996 11.2575 5.2168C11.2165 5.2168 11.1824 5.22364 11.1483 5.22364Z" fill="#499BA3"/>
<path d="M25.6758 7.34357C25.6758 7.34357 25.669 7.34357 25.6554 7.35724C24.604 8.17089 23.5459 9.00505 22.5013 9.83238C19.0128 12.5947 15.7154 15.1997 12.8209 16.6493C7.55052 19.2885 3.22228 16.4236 1.3722 14.81C1.14692 14.6186 0.962593 14.4476 0.819229 14.2972C0.853363 14.1057 0.887498 13.9075 0.921632 13.716C0.921632 13.716 0.921632 13.7023 0.921632 13.6955C1.04452 13.1007 1.20153 12.5058 1.39269 11.9383C1.39269 11.9246 1.39951 11.9178 1.40634 11.9041C1.41999 11.8631 1.44047 11.8289 1.4473 11.7879C1.46778 11.7263 1.48826 11.6716 1.50874 11.6101C1.50874 11.6101 1.50874 11.5964 1.50874 11.5896C1.61115 11.3024 1.72037 11.0289 1.83643 10.7623C2.06172 10.2358 2.33479 9.73665 2.63517 9.2512C4.13026 6.85811 6.49235 5.00518 9.26406 4.3693C12.9301 3.50779 16.8965 4.52656 20.2758 5.98976C22.713 7.04272 24.7132 7.28887 25.6622 7.34357H25.6758Z" fill="white"/>
<path d="M44.361 35.4178C43.9513 36.2998 43.5008 37.1818 43.0229 38.0502C42.3948 39.192 41.7053 40.3134 40.9475 41.3868C41.0158 40.9903 41.0909 40.58 41.166 40.163C41.2752 39.6228 41.3708 39.0895 41.4595 38.5698C41.5415 38.0844 41.6166 37.6126 41.678 37.1545C41.678 37.1408 41.6848 37.134 41.6848 37.1203C41.7872 36.3408 41.8487 35.5956 41.8691 34.8982C41.9238 32.8469 41.6097 31.1239 40.9202 29.7564C40.8451 29.6129 40.77 29.4693 40.6813 29.3325C41.3913 29.3735 42.0398 29.5855 42.586 29.9547C43.1116 30.3034 43.5417 30.7957 43.8285 31.4179C44.4087 32.6555 44.477 34.0913 44.361 35.4178Z" fill="#FFA515"/>
<path d="M55.8164 10.2905C53.3519 10.564 51.8432 10.8102 50.8874 11.4597C50.2184 11.911 49.8771 12.9161 49.6518 14.222C49.5835 14.5434 49.5289 14.8852 49.4743 15.2613C49.3787 15.9929 49.2968 16.7929 49.2012 17.6134C49.1807 17.7228 49.1739 17.839 49.1671 17.9621V18.1125C49.1875 19.0355 49.1056 19.9518 48.9349 20.8611C48.5936 22.7414 47.788 26.5362 46.2452 30.8369C46.1837 30.6796 46.1155 30.5292 46.0472 30.3788C45.0232 28.184 42.9205 26.8712 40.4355 26.8712C39.7528 26.8712 39.0497 26.9738 38.3601 27.1789C37.7526 27.3567 37.0835 27.678 36.1551 28.1293C33.4721 29.4284 28.98 31.6027 22.9451 31.6027C19.6887 31.6027 16.3913 30.9531 13.0871 29.654C13.0803 29.654 13.0734 29.654 13.0666 29.6472C12.9506 29.5788 12.8345 29.5309 12.7184 29.4831C12.0494 29.2233 11.3872 28.9429 10.7387 28.6352C10.6294 28.5874 10.5134 28.5327 10.4041 28.4711C10.2062 28.3686 10.015 28.2729 9.81703 28.1703C9.78972 28.1635 9.75559 28.1498 9.72828 28.1224C9.57127 28.0541 9.42107 27.972 9.26406 27.8831C9.22309 27.8626 9.18213 27.8421 9.14117 27.8148C9.08656 27.7942 9.03877 27.7601 8.98415 27.7259C8.48579 27.4524 8.00109 27.1584 7.52321 26.8438C6.77225 26.3721 6.03495 25.8593 5.33178 25.3123C4.96313 25.0319 4.60814 24.7379 4.26679 24.4302C4.25997 24.4302 4.25314 24.4302 4.24631 24.4166C4.24631 24.4166 4.24631 24.4166 4.24631 24.4029H4.23949H4.23266L4.22583 24.3961L4.21901 24.3824C2.75123 23.0559 1.52922 21.456 1.00355 19.5005C0.819228 18.8373 0.709998 18.1398 0.669037 17.4219C1.57018 18.092 2.73758 18.8099 4.10978 19.3501C5.42053 19.8697 6.91562 20.2253 8.55406 20.2253C10.3768 20.2253 12.186 19.7808 13.9473 18.8988C17.074 17.333 20.4738 14.6459 24.0647 11.8016C27.5737 9.0256 31.1646 6.18808 34.3733 4.54711C35.3154 4.26677 36.2848 4.10268 37.2815 4.089C39.8962 4.04114 42.4767 4.97786 44.436 6.68037C44.5999 6.83763 44.7774 6.98806 44.9549 7.16583C46.5114 9.03244 42.074 10.2974 42.074 10.2974C42.2105 10.2837 42.347 10.27 42.4767 10.2563C42.6065 10.2427 42.7362 10.229 42.8659 10.2085C43.1185 10.1811 43.3642 10.1469 43.5963 10.1196C43.7534 10.0991 43.9036 10.0786 44.0469 10.058C44.1357 10.0375 44.2312 10.0239 44.32 10.0102C44.4634 9.98967 44.6067 9.96232 44.7433 9.93497C44.8798 9.90762 45.0163 9.88027 45.146 9.85292C45.2894 9.82558 45.4328 9.79139 45.5625 9.75036C45.6581 9.72985 45.7536 9.7025 45.8424 9.66831C46.054 9.60678 46.252 9.53157 46.4363 9.44952C46.5387 9.40849 46.6275 9.36063 46.7162 9.31277L46.7845 9.27858L46.9074 9.19653C47.0576 9.11449 47.1941 9.01876 47.317 8.89569C47.3579 8.86834 47.3921 8.82732 47.4262 8.79313C47.5218 8.6974 47.6105 8.59484 47.6925 8.48545C47.7539 8.41023 47.8017 8.34186 47.8495 8.25981C47.8836 8.20511 47.9177 8.15041 47.9519 8.09571C47.9724 8.06153 47.986 8.02734 47.9997 7.99999C48.0611 7.88375 48.1157 7.76068 48.1703 7.63077C48.2113 7.52821 48.2523 7.41881 48.2864 7.30941C48.2932 7.2889 48.3001 7.27523 48.3001 7.25471C48.341 7.13164 48.382 6.99489 48.4161 6.85131C48.5253 6.43423 48.6141 5.95561 48.696 5.41546C48.7165 5.25136 48.7438 5.08726 48.7711 4.90949C48.7848 4.78642 48.8052 4.65651 48.8189 4.51976C48.8325 4.41036 48.8462 4.30096 48.8599 4.19156C48.8872 3.95909 48.9145 3.71294 48.9418 3.45996C48.9623 3.62406 48.9827 3.78816 49.0032 3.93858C49.604 9.21021 50.2457 9.7025 55.8232 10.2974L55.8164 10.2905Z" fill="white"/>
<path d="M16.166 33.2159H16.1592C16.05 33.0587 15.9339 32.9014 15.8178 32.7373C15.9339 32.9014 16.05 33.0587 16.166 33.2159Z" fill="#ED9718"/>
<path d="M16.166 33.2158C17.5587 33.5645 18.9036 33.7902 20.2007 33.9201C19.1835 34.1115 18.1936 34.2756 17.2583 34.4124C16.8692 34.1047 16.5142 33.6876 16.166 33.2227V33.2158Z" fill="#ED9718"/>
<path d="M46.2452 30.8368C46.1837 30.6796 46.1155 30.5292 46.0472 30.3787C45.0232 28.1839 42.9205 26.8712 40.4355 26.8712C39.7528 26.8712 39.0497 26.9737 38.3601 27.1788C37.7526 27.3566 37.0835 27.678 36.1551 28.1292C33.4721 29.4283 28.98 31.6026 22.9451 31.6026C19.6887 31.6026 16.3913 30.9531 13.0871 29.654C13.0803 29.654 13.0734 29.654 13.0666 29.6471C12.9506 29.5788 12.8345 29.5309 12.7184 29.483C12.0494 29.2232 11.3872 28.9429 10.7387 28.6352C10.6294 28.5873 10.5134 28.5326 10.4041 28.4711C10.2062 28.3685 10.015 28.2728 9.81703 28.1703C9.78973 28.1634 9.75559 28.1497 9.72828 28.1224C9.57127 28.054 9.42107 27.972 9.26406 27.8831C9.2231 27.8626 9.18213 27.8421 9.14117 27.8147C9.08656 27.7942 9.03877 27.76 8.98416 27.7258C8.4858 27.4523 8.00109 27.1583 7.52321 26.8438C6.77225 26.372 6.03495 25.8592 5.33178 25.3122C4.96313 25.0319 4.60814 24.7379 4.26679 24.4302C4.25997 24.4302 4.25314 24.4302 4.24631 24.4165C4.24631 24.4165 4.24631 24.4165 4.24631 24.4029H4.23949H4.23266L4.22583 24.396L4.21901 24.3823C2.75123 23.0559 1.52922 21.4559 1.00355 19.5004C0.819228 18.8372 0.709998 18.1398 0.669037 17.4219C3.91862 24.143 11.2712 26.8096 18.494 27.8763C31.977 29.8796 46.6616 14.181 46.252 30.8437L46.2452 30.8368Z" fill="#E6E7E8"/>
<path d="M4.44428 24.5734C4.0688 24.2794 3.72063 23.9923 3.39294 23.6982C3.74111 23.9991 4.09611 24.2863 4.44428 24.5734Z" fill="white"/>
<path d="M56.069 10.29C53.5977 10.5567 52.089 10.8028 51.1332 11.4524C49.9522 12.2455 49.6449 13.6609 49.3173 16.4779C49.3036 16.5941 49.2899 16.7104 49.2763 16.8334C49.2149 9.64049 42.0603 10.2969 42.0603 10.2969C44.2927 10.0576 45.7332 9.83193 46.7026 9.31229L46.7708 9.27127C47.2282 9.01828 47.5696 8.69009 47.8358 8.25933C48.0748 7.87644 48.2591 7.41833 48.4025 6.85083C48.6277 5.98248 48.7779 4.86115 48.935 3.41162C49.5562 9.17554 50.3071 9.67467 56.069 10.2969V10.29Z" fill="white"/>
<path d="M0.0819244 26.6383L0.826052 25.9819C0.648554 26.4332 0.573458 26.9665 0.552978 27.4588C0.327691 27.2195 0.170674 26.9323 0.0819244 26.6383Z" fill="#499BA3"/>
<path d="M2.34844 24.9088C2.22555 24.902 2.1095 24.9088 2.0071 24.9293L2.75805 24.2661C3.14035 24.437 3.4817 24.7037 3.79573 24.984C3.27689 25.0114 2.77853 24.9225 2.34844 24.9088Z" fill="#499BA3"/>
<path d="M44.3609 35.4176C44.3609 35.4791 44.3541 35.5338 44.3473 35.5885C44.3063 35.9783 44.2722 36.368 44.2312 36.7577C44.1766 37.3047 44.0742 37.756 43.9445 38.1457H43.9377C43.2072 40.2585 41.4595 40.4499 40.9612 43.4037C40.6471 45.2498 40.1897 47.5198 39.2067 49.4411C39.0906 49.6599 39.0223 49.783 39.0223 49.783C38.1622 51.3282 36.9265 52.6068 35.1037 53.2016C32.1204 54.1726 30.2703 50.9111 28.9664 48.942C28.4407 48.1351 28.0584 47.1574 27.1504 46.6172C25.6895 45.7352 23.7233 46.5078 23.0338 47.8411C21.7299 50.3436 19.1425 54.5691 15.497 53.017C12.1586 51.6017 10.841 47.0412 10.0423 44.7233C9.37327 42.7951 8.77934 40.8533 8.20588 38.8978C8.05569 38.3919 7.91233 37.8859 7.76896 37.3799C14.0292 40.5046 22.2556 40.6208 26.338 39.9439C26.3722 39.9439 26.3995 39.9439 26.4268 39.9303C27.5942 39.7798 28.7616 39.5542 29.929 39.226C31.2465 38.8568 32.5573 38.3645 33.8476 37.7218C33.9773 37.6603 34.0933 37.5987 34.2231 37.5372C35.1993 37.0586 36.0185 36.5458 36.6875 36.0603C36.7012 36.0535 36.7285 36.0398 36.7422 36.033C38.2782 34.9116 39.0428 33.9475 39.1998 33.7698C39.2067 33.7493 39.2135 33.7424 39.2271 33.7356C38.5035 34.0228 37.3771 34.5219 35.9298 35.0552C33.5472 35.9509 30.2908 36.9628 26.5087 37.3799C26.3312 37.4004 26.1605 37.4209 25.9899 37.4346C25.8806 37.4415 25.7714 37.4551 25.669 37.462C25.3686 37.4893 25.0682 37.503 24.7815 37.5303C24.7132 37.5303 24.6381 37.5303 24.5699 37.5303C24.3924 37.5372 24.208 37.544 24.0237 37.5509C23.894 37.5509 23.7575 37.5509 23.6141 37.5509C23.4981 37.5577 23.382 37.5577 23.2591 37.5577H22.6037C22.3853 37.5577 22.1736 37.5509 21.962 37.544C21.7572 37.5372 21.5524 37.5235 21.3476 37.5167C21.2861 37.5167 21.2247 37.5098 21.1701 37.503H21.1018C20.8424 37.4825 20.5762 37.462 20.3167 37.4415C20.1734 37.4278 20.0368 37.4141 19.9071 37.4004C19.5385 37.3594 19.1698 37.3115 18.8217 37.2637C18.7807 37.2637 18.7397 37.2637 18.6919 37.25C18.6783 37.25 18.6646 37.25 18.6442 37.25C18.5691 37.2363 18.5008 37.2295 18.4257 37.209C17.3812 37.0517 16.3298 36.8329 15.2649 36.5389C14.5617 36.3406 13.879 36.115 13.2236 35.8552C13.1554 35.8278 13.0803 35.8005 13.012 35.78C11.6398 35.2398 10.4041 34.5424 9.19578 33.8655C3.53631 30.6793 1.78863 25.9546 1.65892 25.7427C2.06853 26.0845 2.47132 26.4264 2.90141 26.7409C7.68021 30.228 12.1245 32.2108 16.1592 33.2091H16.166C17.5587 33.5578 18.9036 33.7834 20.2007 33.9134H20.2143C24.9249 34.3851 28.9322 33.5715 32.0589 32.5117C35.5133 31.3425 37.9027 29.8793 38.9882 29.5443C39.0087 29.5306 39.0292 29.5306 39.0428 29.5238C39.6094 29.3597 40.1624 29.2913 40.6813 29.3255C41.3913 29.3665 42.0398 29.5785 42.586 29.9477C43.1116 30.2964 43.5417 30.7887 43.8284 31.4109C44.4087 32.6484 44.477 34.0843 44.3609 35.4108V35.4176Z" fill="white"/>
<path d="M3.79574 24.9841C3.2769 25.0114 2.77854 24.9225 2.34845 24.9088C2.22556 24.902 2.10951 24.9088 2.0071 24.9294C1.39951 25.0251 1.03769 25.449 0.826058 25.9823C0.648559 26.4336 0.573464 26.9669 0.552983 27.4592C0.327697 27.2199 0.170679 26.9327 0.0819297 26.6387C-0.225279 25.5516 0.361831 24.2593 1.61797 24.061C2.03441 24.0063 2.40989 24.0952 2.75806 24.2661C3.14036 24.4371 3.48171 24.7037 3.79574 24.9841Z" fill="white"/>
<path d="M25.6554 7.3501C24.604 8.16375 23.5459 8.99791 22.5013 9.82524C19.0128 12.5875 15.7154 15.1926 12.8209 16.6421C7.55052 19.2814 3.22228 16.4165 1.3722 14.8029C1.14692 14.6114 0.962593 14.4405 0.819229 14.2901C0.853363 14.0986 0.887498 13.9003 0.921632 13.7089C0.921632 13.7089 0.921632 13.6952 0.921632 13.6884C1.04452 13.0935 1.20153 12.4987 1.39269 11.9312C1.39269 11.9175 1.39951 11.9106 1.40634 11.897C1.41999 11.8559 1.44047 11.8218 1.4473 11.7807C1.46778 11.7192 1.48826 11.6645 1.50874 11.603C1.50874 11.603 1.50874 11.5893 1.50874 11.5824C1.61115 11.2953 1.72037 11.0218 1.83643 10.7551C2.06172 10.2286 2.33479 9.72951 2.63517 9.24406C2.642 15.384 10.7045 14.0713 14.7597 12.567C18.692 11.1107 25.2389 7.56206 25.6417 7.34326L25.6554 7.3501Z" fill="#E6E7E8"/>
<path d="M43.9445 38.1458C43.3096 41.6807 40.0259 47.9232 39.2067 49.4411C39.0906 49.6599 39.0223 49.783 39.0223 49.783L37.3907 47.0617C37.6297 46.7746 38.1553 41.6739 38.1553 41.6739C38.1553 41.6739 39.6572 39.5816 41.4595 38.5697C41.9647 38.2825 42.4972 38.0842 43.0229 38.05C43.3301 38.0159 43.6373 38.05 43.9377 38.1458H43.9445Z" fill="white"/>
</g>
<defs>
<clipPath id="clip0_535_11856">
<rect width="227" height="55" fill="white"/>
</clipPath>
</defs>
</svg>
