<svg width="423" height="102" viewBox="0 0 423 102" fill="none" xmlns="http://www.w3.org/2000/svg">
<g clip-path="url(#clip0_535_11663)">
<path d="M185.252 29.5657C182.562 25.4471 178.812 22.5464 174.035 20.8719C170.7 19.6879 165.346 19.1044 157.964 19.1044H147.74V68.2734H163.429C169.58 68.2734 174.366 67.377 177.777 65.601C181.188 63.8166 183.954 61.0596 186.092 57.3132C188.23 53.5667 189.299 49.2283 189.299 44.3063C189.299 38.5978 187.942 33.6927 185.252 29.5657ZM181.111 55.8586C178.99 58.9876 176.063 61.1611 172.363 62.362C169.724 63.2077 164.99 63.6305 158.168 63.6305H152.466V23.9164H155.953C163.038 23.9164 168.129 24.39 171.218 25.3203C175.333 26.5635 178.54 28.8722 180.84 32.2297C183.148 35.5956 184.293 39.6465 184.293 44.3908C184.293 49.1352 183.232 52.7379 181.111 55.8586Z" fill="#499BA3"/>
<path d="M224.809 61.3641C223.57 62.4296 222.085 63.2838 220.32 63.935C218.564 64.5777 216.765 64.8991 214.898 64.8991C211.055 64.8991 207.813 63.546 205.191 60.8482C202.578 58.1419 201.22 54.683 201.136 50.4545H233.964C233.921 45.4818 232.581 41.3379 229.942 38.0227C226.226 33.3206 221.262 30.9611 215.042 30.9611C208.823 30.9611 204.173 33.2614 200.567 37.8536C197.725 41.4647 196.308 45.5833 196.308 50.1839C196.308 55.089 197.988 59.4866 201.339 63.3853C204.691 67.2671 209.358 69.2122 215.306 69.2122C217.987 69.2122 220.396 68.8062 222.526 67.9859C224.647 67.1825 226.557 65.99 228.262 64.434C229.959 62.8779 231.461 60.8228 232.759 58.2773L228.805 56.2053C227.371 58.5817 226.039 60.2985 224.809 61.3641ZM205.862 38.8938C208.441 36.5935 211.521 35.4518 215.102 35.4518C217.274 35.4518 219.344 35.9085 221.313 36.8218C223.281 37.7352 224.868 38.9361 226.064 40.4245C227.269 41.9214 228.177 43.9173 228.805 46.4121H201.602C202.561 43.0716 203.987 40.5683 205.862 38.8938Z" fill="#499BA3"/>
<path d="M273.037 38.6232C272.036 36.2806 270.475 34.42 268.37 33.0415C266.249 31.663 263.831 30.9611 261.107 30.9611C258.384 30.9611 255.94 31.5869 253.657 32.8301C251.375 34.0564 249.296 35.9254 247.413 38.4202V31.9083H242.72V68.2734H247.413V54.9367C247.413 50.1416 247.642 46.8434 248.091 45.042C248.804 42.285 250.289 39.9678 252.537 38.0904C254.777 36.2214 257.323 35.2826 260.165 35.2826C262.643 35.2826 264.662 35.8831 266.198 37.1009C267.751 38.3187 268.786 40.1285 269.338 42.5388C269.685 43.9426 269.855 46.7419 269.855 50.9281V68.2734H274.556V49.5581C274.556 44.6107 274.055 40.9658 273.037 38.6232Z" fill="#499BA3"/>
<path d="M293.401 31.9083V18.4025H288.709V31.9083H282.303V35.9507H288.709V68.2734H293.401V35.9507H300.851V31.9083H293.401Z" fill="#499BA3"/>
<path d="M312.263 18.0642C311.499 17.3115 310.591 16.9309 309.522 16.9309C308.453 16.9309 307.571 17.3115 306.816 18.0642C306.06 18.8253 305.679 19.7387 305.679 20.8042C305.679 21.8698 306.06 22.7578 306.816 23.5189C307.571 24.2716 308.47 24.6437 309.522 24.6437C310.574 24.6437 311.499 24.2716 312.263 23.5189C313.018 22.7578 313.391 21.8529 313.391 20.8042C313.391 19.7556 313.018 18.8253 312.263 18.0642ZM307.189 31.9083V68.2734H311.881V31.9083H307.189Z" fill="#499BA3"/>
<path d="M338.176 52.7971C336.92 51.1311 334.544 49.3889 331.049 47.5876C328.181 46.1161 326.297 44.8306 325.406 43.7397C324.507 42.6656 324.057 41.5408 324.057 40.3653C324.057 39.0206 324.6 37.8536 325.686 36.8472C326.781 35.8493 328.079 35.3503 329.606 35.3503C332.007 35.3503 334.46 36.5681 336.971 38.9953L339.992 35.8831C336.581 32.6102 333.204 30.9611 329.844 30.9611C326.95 30.9611 324.558 31.8829 322.666 33.7096C320.782 35.5364 319.832 37.8367 319.832 40.5936C319.832 42.7079 320.426 44.5938 321.613 46.2429C322.801 47.9005 325.041 49.5665 328.333 51.2579C331.405 52.814 333.374 54.1164 334.247 55.1397C335.121 56.1884 335.563 57.3724 335.563 58.717C335.563 60.3492 334.901 61.7615 333.577 62.9624C332.262 64.1633 330.65 64.7638 328.766 64.7638C326.076 64.7638 323.531 63.4191 321.147 60.7213L318.194 64.0618C319.441 65.6687 321.028 66.9288 322.937 67.8337C324.855 68.7555 326.866 69.2122 328.97 69.2122C332.126 69.2122 334.757 68.1804 336.869 66.1084C338.965 64.0365 340.026 61.4994 340.026 58.5141C340.026 56.3998 339.406 54.4885 338.176 52.7971Z" fill="#499BA3"/>
<path d="M357.097 31.9083V18.4025H352.405V31.9083H345.991V35.9507H352.405V68.2734H357.097V35.9507H364.539V31.9083H357.097Z" fill="#499BA3"/>
<path d="M384.097 30.9611C382.374 30.9611 380.719 31.4854 379.133 32.5257C377.538 33.5574 376.036 35.122 374.602 37.2193V31.9083H369.808V68.2734H374.602V55.977C374.602 49.668 374.89 45.4818 375.476 43.4098C376.231 40.712 377.342 38.7162 378.793 37.4392C380.253 36.1537 381.755 35.5194 383.324 35.5194C383.995 35.5194 384.826 35.7224 385.802 36.1537L388.254 32.2043C386.778 31.3755 385.386 30.9611 384.097 30.9611Z" fill="#499BA3"/>
<path d="M418.002 31.9083L405.826 59.9095L393.286 31.9083H388.322L403.298 65.5165L396.272 81.5848H401.228L423 31.9083H418.002Z" fill="#499BA3"/>
<path d="M225.615 77.4408V86.7013H217.393V77.4408H212.641V102H217.393V91.2342H225.615V102H230.366V77.4408H225.615Z" fill="#FFA515"/>
<path d="M256.5 77.4408H251.74L242.237 102H247.107L249.118 96.9427H259.173L261.099 102H265.978L256.5 77.4408ZM250.84 92.3844L254.15 83.9527L257.433 92.3844H250.84Z" fill="#FFA515"/>
<path d="M282.523 97.5432V77.4408H277.831V102H289.354V97.5432H282.523Z" fill="#FFA515"/>
<path d="M305.848 97.5432V77.4408H301.156V102H312.679V97.5432H305.848Z" fill="#FFA515"/>
<path d="M336.759 77.4408H332.007L322.504 102H327.375L329.377 96.9427H339.432L341.358 102H346.237L336.759 77.4408ZM331.1 92.3844L334.409 83.9527L337.692 92.3844H331.1Z" fill="#FFA515"/>
<path d="M381.101 77.4408H376.536L370.775 94.5747L365.056 77.4408H360.483L356.215 102H360.788L363.504 86.4898L368.688 102H372.82L378.055 86.4898L380.703 102H385.233L381.101 77.4408Z" fill="#FFA515"/>
<path d="M129.226 61.3049L129.065 61.4825C128.988 61.567 128.912 61.6516 128.827 61.7362L127.868 62.7764C126.231 64.5101 124.177 65.5334 123.151 65.5334C122.336 65.5334 121.513 64.713 121.615 64.0027C121.844 63.2415 122.531 61.0004 123.167 59.0976C123.38 58.4549 123.592 57.8544 123.77 57.3639L131.661 35.807C134.537 28.035 138.559 19.375 132.526 18.8591C128.157 18.487 120.91 25.3541 119.477 26.6819C117.576 28.4409 115.506 30.7581 113.104 33.7604L114.445 34.8852L117.932 31.1049L117.941 31.088L117.992 31.0372L118.017 31.0119L118.467 30.5214L118.543 30.4452L119.256 29.6672C120.902 27.9335 122.845 26.9187 123.872 26.9187C124.695 26.9187 125.62 27.7305 125.518 28.4409C125.289 29.1936 124.627 31.3417 124.007 33.2022C124.007 33.2022 124.007 33.2276 124.007 33.2361C123.778 33.9211 123.558 34.5638 123.363 35.0881L115.48 56.6451C112.604 64.4086 111.883 70.337 117.932 70.337C122.955 70.337 127.155 67.2755 134.028 58.6832L132.696 57.5669L129.234 61.3049H129.226ZM138.322 5.6662C135.462 5.6662 132.272 8.00879 131.254 10.8757C130.125 13.8357 131.661 16.0852 134.537 16.0852C137.414 16.0852 140.587 13.8357 141.716 10.8757C142.734 8.00879 141.3 5.6662 138.322 5.6662Z" fill="#FFA515"/>
<path d="M117.932 31.1049C119.714 28.7961 125.433 26.3098 123.999 33.2361C125.161 38.3441 125.06 37.2447 126.273 34.826C127.486 32.4157 128.089 25.4725 127.283 24.8721C126.477 24.2716 124.287 23.1638 123.566 24.4661C122.845 25.777 121.538 25.371 120.63 26.6819C119.723 27.9927 119.824 27.4853 118.916 28.6946L117.941 31.1049H117.932Z" fill="#FFA515"/>
<path d="M129.243 61.2626C127.461 63.5713 121.742 66.0577 123.176 59.1314C122.014 54.0234 122.115 55.1228 120.902 57.5415C119.689 59.9517 119.086 66.8949 119.892 67.4954C120.698 68.0958 122.887 69.2037 123.609 67.9013C124.33 66.5905 125.637 66.9964 126.544 65.6856C127.452 64.3748 127.351 64.8822 128.258 63.6728L129.234 61.2626H129.243Z" fill="#FFA515"/>
<path d="M77.2979 5.57317C80.2252 5.88608 81.4385 6.18207 82.0664 7.56902C82.4143 8.33861 82.584 9.45494 82.7622 11.1041C82.8979 9.8947 83.0167 8.96443 83.2119 8.2625C83.7634 6.24127 84.8919 5.91991 88.3368 5.55626C83.6785 5.05729 83.2628 4.65136 82.7622 0C82.2616 4.6429 81.8543 5.05729 77.247 5.5478H77.196L77.2809 5.56471H77.3063L77.2979 5.57317Z" fill="#FFA515"/>
<path d="M20.7796 9.68328C20.8984 9.68328 21.0257 9.65791 21.1445 9.65791C21.0936 9.65791 21.0427 9.65791 20.9918 9.67482C20.9154 9.67482 20.8475 9.69173 20.7881 9.69173L20.7796 9.68328Z" fill="#499BA3"/>
<path d="M47.8466 13.6158C47.8466 13.6158 47.8296 13.6158 47.8127 13.6412C45.8526 15.1465 43.8841 16.6941 41.9326 18.2333C35.4331 23.3583 29.2815 28.1872 23.8936 30.8765C14.0765 35.7647 6.00733 30.4622 2.56245 27.4599C2.14668 27.1047 1.7988 26.7834 1.52728 26.5127C1.58668 26.1575 1.65456 25.7939 1.72244 25.4387C1.72244 25.4387 1.72244 25.4133 1.72244 25.3964C1.95153 24.2885 2.2485 23.1976 2.59639 22.132L2.62184 22.0643C2.6473 21.9882 2.68124 21.9206 2.69821 21.8445C2.73215 21.7261 2.77457 21.6246 2.81699 21.5146C2.81699 21.5146 2.81699 21.4893 2.81699 21.4808C3.00366 20.948 3.2073 20.4406 3.42791 19.9416C3.85216 18.9691 4.35277 18.0388 4.91278 17.1424C7.69584 12.7109 12.091 9.27734 17.2669 8.0849C24.0888 6.49499 31.4876 8.37244 37.7919 11.0871C42.3314 13.0323 46.0563 13.4974 47.8296 13.5989L47.8466 13.6158Z" fill="#499BA3"/>
<path d="M59.734 60.3069C58.2576 61.2457 56.7643 62.2013 56.06 62.5734C51.7836 64.8314 44.3847 64.8484 34.7883 64.8484C33.804 64.8484 32.947 64.4509 32.1495 63.8251C31.4367 63.25 30.7749 62.4719 30.1216 61.6093C32.7264 62.2436 35.2295 62.6664 37.6392 62.9032H37.6647C46.4466 63.7743 53.9049 62.269 59.734 60.3069Z" fill="#FFA515"/>
<path d="M81.6761 58.2603C82.7622 60.5607 82.881 63.2246 82.6603 65.6856C81.8882 67.3178 81.0652 68.9415 80.1743 70.5568C80.1658 70.5568 80.1658 70.5568 80.1658 70.5568C78.9948 72.6711 77.7136 74.7515 76.3051 76.7474C76.4324 76.0116 76.5682 75.2505 76.7039 74.4724C76.9076 73.4745 77.0942 72.4766 77.2554 71.5209C77.4082 70.616 77.5439 69.7534 77.6627 68.8908C77.6627 68.8739 77.6712 68.8485 77.6712 68.8316C77.8664 67.377 77.9767 66.007 78.0191 64.7046C78.1209 60.8989 77.527 57.7106 76.2457 55.1735C76.1015 54.9029 75.9657 54.6407 75.8045 54.387C77.1282 54.4547 78.35 54.8522 79.3767 55.5456H79.3852C80.344 56.1968 81.1331 57.1102 81.6761 58.2519V58.2603Z" fill="#FFA515"/>
<path d="M104.008 19.0875C99.4096 19.5864 96.6011 20.0516 94.8193 21.2525C93.572 22.0813 92.9271 23.9587 92.5114 26.3859C92.4859 26.5296 92.452 26.6819 92.4265 26.8341C92.4095 26.9271 92.3926 27.0201 92.3841 27.1132C92.3586 27.2316 92.3332 27.3669 92.3162 27.4937C92.2738 27.7305 92.2398 27.9758 92.2059 28.221C92.1889 28.2887 92.1804 28.3479 92.172 28.4156C92.0023 29.7433 91.858 31.1895 91.6798 32.661C91.6459 32.8639 91.6289 33.0838 91.612 33.3122C91.612 33.3883 91.612 33.4898 91.6204 33.5912C91.6544 35.2996 91.5016 36.9994 91.1877 38.6824C90.5428 42.1751 89.0495 49.2198 86.1731 57.1863H86.1646C86.0543 56.8988 85.927 56.6112 85.7998 56.3321C83.8907 52.2643 79.9791 49.8372 75.3463 49.8372C74.0651 49.8372 72.7669 50.0232 71.4772 50.4038C70.3487 50.7336 69.1014 51.3341 67.3705 52.1628C62.3643 54.5731 53.9982 58.6071 42.7556 58.6071C36.7144 58.6071 30.6052 57.4146 24.4706 55.0382H24.4621C24.4621 55.0382 24.4197 55.0213 24.4027 55.0129C24.3688 54.9875 24.3348 54.9706 24.3009 54.9452L24.0972 54.8437C23.97 54.7761 23.8342 54.7253 23.6985 54.6746C22.3069 54.1418 20.9493 53.5498 19.6087 52.9071C19.1675 52.6956 18.7263 52.4757 18.2851 52.2474C17.9457 52.0783 17.6063 51.9007 17.2584 51.7062C14.6874 50.3108 12.2353 48.7124 9.92739 46.9449C9.24859 46.4205 8.57828 45.8793 7.94191 45.3042C7.92494 45.2788 7.89948 45.2619 7.87403 45.245C7.86554 45.245 7.85706 45.2281 7.84857 45.2112C5.10794 42.7502 2.82549 39.7818 1.84972 36.1537C1.51032 34.919 1.2982 33.6251 1.22183 32.2973C2.91034 33.5405 5.08248 34.8683 7.63645 35.8746C10.0801 36.8303 12.8717 37.4984 15.9178 37.4984C19.3117 37.4984 22.6972 36.6781 25.9724 35.0374C31.8016 32.1282 38.1313 27.1555 44.826 21.8783C51.3679 16.728 58.054 11.4677 64.0359 8.41473C65.7923 7.89885 67.5911 7.5944 69.4493 7.56902C74.3196 7.48445 79.1391 9.21814 82.7876 12.3811C83.1016 12.6601 83.424 12.9561 83.7549 13.269C86.6567 16.7449 78.3839 19.0875 78.3839 19.0875C78.893 19.0283 79.3851 18.9775 79.8518 18.9268C82.27 18.6477 84.1197 18.3433 85.5622 17.8781C85.6301 17.8527 85.6979 17.8358 85.7658 17.8105C85.8167 17.7935 85.8676 17.7766 85.9186 17.7513C86.3258 17.6075 86.6907 17.4468 87.0301 17.2608L87.1658 17.1931C87.2677 17.1254 87.3695 17.0662 87.4713 17.007C87.624 16.9056 87.7768 16.8041 87.921 16.6857C87.938 16.6857 87.9465 16.6688 87.9634 16.6603C88.0737 16.5673 88.184 16.4658 88.2859 16.3728C88.4556 16.2205 88.5998 16.0514 88.744 15.8738C88.7949 15.8146 88.8459 15.7554 88.8883 15.6962C88.9816 15.5778 89.0665 15.4425 89.1428 15.3156C89.2022 15.2311 89.2531 15.1381 89.304 15.045C89.321 15.0281 89.3295 15.0112 89.338 14.9943C89.3804 14.9182 89.4228 14.8421 89.4568 14.7575C89.5077 14.656 89.5586 14.5545 89.601 14.453C89.6519 14.3515 89.6944 14.2416 89.7453 14.1317C89.8216 13.9456 89.898 13.7511 89.9574 13.5397C90.0422 13.2775 90.1271 12.99 90.2035 12.694C90.2798 12.398 90.3562 12.0935 90.4241 11.7637C90.475 11.5184 90.5259 11.2563 90.5683 10.9941C90.5853 10.9095 90.5938 10.825 90.6107 10.7319C90.6277 10.622 90.6532 10.5121 90.6701 10.3937C90.6871 10.2753 90.7041 10.1569 90.721 10.03C90.7465 9.86087 90.7719 9.68328 90.8059 9.50568C90.9416 8.55849 91.0604 7.51828 91.1877 6.35122C91.2216 6.67258 91.2641 6.99395 91.298 7.28994C91.3319 7.61131 91.3744 7.91576 91.4083 8.21176C92.5029 17.1254 93.9538 18.0134 104.008 19.0875Z" fill="#FFA515"/>
<path d="M30.1216 61.6093C32.7349 62.2436 35.2465 62.6664 37.6647 62.9032H37.6392C35.7386 63.2584 33.8974 63.5629 32.1495 63.8251C31.4367 63.25 30.7749 62.4719 30.1216 61.6093Z" fill="#ED9718"/>
<path d="M79.3767 55.5541L76.2457 55.182L72.7584 54.7676C73.8021 54.4631 74.8287 54.3447 75.8045 54.3955C77.1282 54.4631 78.35 54.8606 79.3767 55.5541Z" fill="#ED9718"/>
<path d="M86.1731 57.1863H86.1646C86.0543 56.8988 85.927 56.6112 85.7998 56.3321C83.8907 52.2643 79.9791 49.8372 75.3463 49.8372C74.0651 49.8372 72.7669 50.0232 71.4772 50.4038C70.3487 50.7336 69.1014 51.3341 67.3705 52.1628C62.3644 54.5731 53.9982 58.6071 42.7556 58.6071C36.7144 58.6071 30.6052 57.4146 24.4706 55.0382H24.4621C24.4112 55.0044 24.3603 54.979 24.3009 54.9452L24.0972 54.8437C23.97 54.7761 23.8342 54.7253 23.6985 54.6746C22.3069 54.1418 20.9493 53.5498 19.6087 52.9071C19.1675 52.6956 18.7263 52.4757 18.2851 52.2474C17.9457 52.0783 17.6063 51.9007 17.2584 51.7062C14.6874 50.3108 12.2353 48.7124 9.92739 46.9449C9.24859 46.4205 8.57828 45.8793 7.94191 45.3042C7.92494 45.2788 7.89948 45.2619 7.87403 45.245C7.86554 45.245 7.85706 45.2281 7.84858 45.2112C5.10794 42.7502 2.82549 39.7818 1.84972 36.1537C1.51032 34.919 1.2982 33.6251 1.22183 32.2973C7.28008 44.763 20.9833 49.7018 34.4404 51.6892C59.5643 55.3934 86.9283 26.2928 86.1731 57.1863Z" fill="#ED9718"/>
<path d="M8.28979 45.5748C7.59403 45.0336 6.94069 44.4923 6.33826 43.9511C6.98311 44.5092 7.64494 45.0505 8.28979 45.5748Z" fill="white"/>
<path d="M104.484 19.0875C99.8763 19.578 97.0678 20.0431 95.286 21.244C93.0799 22.7155 92.5114 25.3372 91.9005 30.5636V30.5805C91.875 30.7835 91.8496 30.9949 91.8241 31.2233C91.7053 17.8781 78.3755 19.0959 78.3755 19.0959C82.5331 18.6477 85.2228 18.2333 87.0301 17.2692L87.1659 17.1931C88.0144 16.7195 88.6507 16.1106 89.1428 15.3156C89.5926 14.6137 89.9319 13.7511 90.2035 12.7024C90.6192 11.0871 90.8992 9.01517 91.1877 6.32584C92.3417 17.024 93.7417 17.9458 104.484 19.0875Z" fill="#499BA3"/>
<path d="M82.6603 65.6856C82.6519 65.7955 82.6434 65.897 82.6349 65.9985C82.567 66.7174 82.4906 67.4362 82.4228 68.1635C82.3209 69.1783 82.1343 70.024 81.8797 70.7429C80.5136 74.6585 77.2469 75.0221 76.3221 80.4854C75.7366 83.9697 74.8712 88.2404 72.979 91.8347C72.8093 92.1476 72.716 92.3167 72.716 92.3167C71.1123 95.1752 68.8044 97.5601 65.4104 98.6595C59.8528 100.469 56.3994 94.4141 53.9727 90.7522C52.9885 89.2722 52.2757 87.4539 50.5957 86.456C47.8636 84.8154 44.1981 86.253 42.9169 88.714C40.4902 93.3569 35.6622 101.197 28.8658 98.3212C22.6548 95.6911 20.1942 87.2341 18.7093 82.9379C17.462 79.369 16.3505 75.7579 15.2814 72.1383C15.0099 71.1996 14.7383 70.2524 14.4583 69.3137C26.2185 75.1574 41.6696 75.335 49.2381 74.0496C49.2636 74.0496 49.289 74.0496 49.306 74.0496C51.4612 73.779 53.6164 73.3561 55.7631 72.7557C58.2152 72.0622 60.6589 71.1488 63.0686 69.9648C63.3062 69.8549 63.5268 69.7365 63.7644 69.6181C65.5886 68.7301 67.1159 67.7829 68.3632 66.8865C68.3887 66.8696 68.4311 66.8442 68.4565 66.8273C71.3245 64.7553 72.7414 62.9709 73.0384 62.6411C73.0554 62.5988 73.0723 62.5819 73.0893 62.5734C71.7487 63.1062 69.6529 64.028 66.9462 65.0259C62.5171 66.6835 56.4334 68.561 49.3909 69.3306C49.06 69.3729 48.746 69.4067 48.4236 69.4321C48.2199 69.449 48.0163 69.4659 47.8212 69.4912C47.2696 69.5335 46.7181 69.5674 46.1751 69.6012C46.0393 69.6097 45.912 69.6096 45.7763 69.6181C45.4454 69.635 45.106 69.6435 44.7666 69.6519C44.5205 69.6519 44.2575 69.6688 43.9944 69.6688C43.7738 69.6773 43.5617 69.6773 43.3326 69.6773C43.112 69.6773 42.8829 69.6773 42.6623 69.6773H42.3653C42.289 69.6773 42.2041 69.6773 42.1193 69.6773C41.712 69.6773 41.3132 69.6688 40.9144 69.6519C40.5411 69.6519 40.1592 69.6266 39.7774 69.6012C39.6671 69.6012 39.5483 69.6012 39.4465 69.5843C39.4041 69.5843 39.3532 69.5843 39.3108 69.5843C38.8271 69.5589 38.3435 69.5166 37.8513 69.4743C37.5968 69.449 37.3338 69.4236 37.0877 69.3982C36.4004 69.3306 35.7216 69.246 35.0683 69.153C34.9919 69.1361 34.9071 69.1361 34.8307 69.1191C34.8052 69.1191 34.7713 69.1191 34.7458 69.1022C34.6016 69.0853 34.4658 69.0684 34.3301 69.0346C32.387 68.747 30.4185 68.3411 28.433 67.7829C27.1264 67.4277 25.8621 67.0049 24.6318 66.5313C24.513 66.4721 24.3688 66.4298 24.25 66.3791C21.6875 65.3727 19.3796 64.0872 17.1396 62.8271C6.58432 56.9072 3.33458 48.1373 3.08003 47.7567C3.85216 48.3826 4.60732 49.0253 5.39642 49.6004C14.3141 56.0784 22.6039 59.7572 30.1216 61.6009C32.7264 62.2436 35.2295 62.6664 37.6392 62.9032H37.6647C46.4466 63.7743 53.9049 62.269 59.734 60.3069H59.7425C66.2165 58.125 70.6711 55.4019 72.6821 54.7845C72.699 54.7845 72.7075 54.7761 72.716 54.7761C72.733 54.7761 72.7414 54.7761 72.7584 54.7761C73.8021 54.4716 74.8287 54.3532 75.8045 54.4039C77.1282 54.4716 78.35 54.8691 79.3767 55.5626H79.3852C80.3439 56.2137 81.1331 57.1271 81.6761 58.2688C82.7622 60.5691 82.881 63.2331 82.6603 65.6941V65.6856Z" fill="#499BA3"/>
<path d="M1.02668 50.9281C-0.933347 48.8646 0.0169664 45.0843 3.01215 44.6192C4.62429 44.4078 5.95643 45.3549 7.06796 46.336C6.10067 46.3952 5.17581 46.226 4.37823 46.2006C1.78184 46.1076 1.12001 48.7208 1.02668 50.9366V50.9281Z" fill="#499BA3"/>
<path d="M47.8042 13.6327C45.8442 15.138 43.8756 16.6857 41.9241 18.2249C35.4246 23.3498 29.2731 28.1788 23.8851 30.8681C14.068 35.7562 5.99885 30.4537 2.55396 27.4515C2.1382 27.0963 1.79032 26.7749 1.5188 26.5043C1.57819 26.1491 1.64607 25.7854 1.71395 25.4302C1.71395 25.4302 1.71395 25.4049 1.71395 25.3879C1.94305 24.2801 2.24002 23.1891 2.5879 22.1235L2.61336 22.0559C2.63881 21.9798 2.67275 21.9121 2.68972 21.836C2.72366 21.7176 2.76609 21.6161 2.80851 21.5062C2.80851 21.5062 2.80851 21.4808 2.80851 21.4723C2.99518 20.9396 3.19882 20.4321 3.41943 19.9332C3.84367 18.9606 4.34429 18.0303 4.90429 17.1339C4.92126 28.5255 19.9396 26.0899 27.4997 23.2991C34.8307 20.5928 47.0236 14.0133 47.7787 13.6158L47.8042 13.6327Z" fill="#41898C"/>
<path d="M72.716 92.3167C72.716 92.3167 80.5306 78.2443 81.8882 70.7429C76.95 69.1614 71.0954 77.2886 71.0954 77.2886C71.0954 77.2886 70.1196 86.7436 69.6784 87.2763L72.716 92.3252V92.3167Z" fill="#499BA3"/>
</g>
<defs>
<clipPath id="clip0_535_11663">
<rect width="423" height="102" fill="white"/>
</clipPath>
</defs>
</svg>
